# xmcd
# 
# Track frame offsets:
#     150
#     9522
#     20557
#     33024
#     44571
#     56061
#     63774
#     74396
#     84173
#     97363
#     109872
#     120284
#     138179
#     149364
#     158791
#     174063
#     190333
#     204685
# 
# Disc length: 2950
# 
# Revision: 5
# Processed by: cddbd v1.5.2PL0 Copyright (c) Steve Scherf et al.
# Submitted via: BonkEnc v1.0rc1
# 
DISCID=f10b8412
DTITLE=Various Artist - Rawhide
DYEAR=1996
DGENRE=Country
TTITLE0=Frankie Laine - Rawhide
TTITLE1=Freddy Fender - Wild Side Of life
TTITLE2=Merle Haggard - Okie From Muskogee
TTITLE3=Waylon Jennings - Sally Was A Good Old Girl
TTITLE4=Patsy Cline - Hungry For Love
TTITLE5=Roger Miller - Do Wacka Do
TTITLE6=Jim Nestbitt - Running Bare
TTITLE7=Del Wood - Are You From Dixie
TTITLE8=Charlie Rich - I Take It On Home
TTITLE9=Tommy Cash - Six White Horses
TTITLE10=Billie Joe Spears - I'm Gonna Be A Country Girl Again
TTITLE11=Buck Owens - Leavin' Dirt Tracks
TTITLE12=The Willis Brothers - Give Me 40 Acres
TTITLE13=Bob Luman - Let's Think About Living
TTITLE14=Kenny Rogers - Just Dropped In
TTITLE15=Lynn Anderson - The Devil Went Down To Georgia
TTITLE16=Glen Campbell - Rhinestone Cowboy
TTITLE17=Johnny Cash - A Boy Named Sue
EXTD=YEAR: 1996
EXTT0=
EXTT1=
EXTT2=
EXTT3=
EXTT4=
EXTT5=
EXTT6=
EXTT7=
EXTT8=
EXTT9=
EXTT10=
EXTT11=
EXTT12=
EXTT13=
EXTT14=
EXTT15=
EXTT16=
EXTT17=
PLAYORDER=
